<svg class="border shadow-md" viewBox="0 0 1351.68 760.32" style="width: 1351.68px; height: 760.32px;" xmlns="http://www.w3.org/2000/svg" preserveAspectRatio="none"><rect class="bg" id="bg" x="0" y="0" width="1351.68" height="760.32" fill="#ffffff"/><g transform="rotate(0 675.84 380.16)"><path d="M -517.23 -96.72 S -269.00 -188.72&#10;            0.00 -96.72 248.61 -197.72&#10;            517.23 -96.72 669.45 -160.08&#10;            1034.45 -96.72 1192.68 -195.72&#10;            1551.68 -96.72 1636.91 -160.08&#10;            2068.91 -96.72 h 110 V 960.32 H -517.23 Z" fill="#839788" id="-1"/><path d="M -517.23 30.00 S -516.00 -40.00&#10;            0.00 30.00 247.23 -33.36&#10;            517.23 30.00 724.45 -33.36&#10;            1034.45 30.00 1283.07 -94.00&#10;            1551.68 30.00 1657.91 -39.00&#10;            2068.91 30.00 h 110 V 960.32 H -517.23 Z" fill="#92a191" id="0"/><path d="M -517.23 156.72 S -268.61 93.36&#10;            0.00 156.72 197.23 93.36&#10;            517.23 156.72 765.84 93.36&#10;            1034.45 156.72 1084.68 93.36&#10;            1551.68 156.72 1632.91 93.36&#10;            2068.91 156.72 h 110 V 960.32 H -517.23 Z" fill="#a1ab9a" id="1"/><path d="M -517.23 283.44 S -268.61 201.44&#10;            0.00 283.44 248.61 220.08&#10;            517.23 283.44 642.45 220.08&#10;            1034.45 283.44 1283.07 220.08&#10;            1551.68 283.44 1800.29 199.44&#10;            2068.91 283.44 h 110 V 960.32 H -517.23 Z" fill="#b0b5a3" id="2"/><path d="M -517.23 410.16 S -293.00 346.80&#10;            0.00 410.16 183.23 346.80&#10;            517.23 410.16 765.84 340.16&#10;            1034.45 410.16 1283.07 346.80&#10;            1551.68 410.16 1800.29 346.80&#10;            2068.91 410.16 h 110 V 960.32 H -517.23 Z" fill="#bfbfac" id="3"/><path d="M -517.23 536.88 S -414.00 473.52&#10;            0.00 536.88 199.23 473.52&#10;            517.23 536.88 765.84 473.52&#10;            1034.45 536.88 1174.68 418.88&#10;            1551.68 536.88 1800.29 449.88&#10;            2068.91 536.88 h 110 V 960.32 H -517.23 Z" fill="#cec9b5" id="4"/><path d="M -517.23 663.60 S -268.61 600.24&#10;            0.00 663.60 248.61 600.24&#10;            517.23 663.60 765.84 595.60&#10;            1034.45 663.60 1283.07 539.60&#10;            1551.68 663.60 1800.29 600.24&#10;            2068.91 663.60 h 110 V 960.32 H -517.23 Z" fill="#ddd3be" id="5"/></g></svg>