<svg class="border shadow-md" viewBox="0 0 1351.68 675.84" style="width: 1351.68px; height: 675.84px;" xmlns="http://www.w3.org/2000/svg" preserveAspectRatio="none"><rect class="bg" id="bg" x="0" y="0" width="1351.68" height="675.84" fill="#cdcdcd"/><g transform="rotate(0 675.84 337.92)"><path id="-1" d="M -258.61 -45.09 S -139.31 -82.64&#10;            0.00 -45.09 37.61 -82.64&#10;            258.61 -45.09 377.92 -82.64&#10;            517.23 -45.09 636.53 -82.64&#10;            775.84 -45.09 895.15 -106.09&#10;            1034.45 -45.09 1128.07 -82.64&#10;            1293.07 -45.09 1412.37 -96.09&#10;            1551.68 -45.09 1584.29 -109.09&#10;            1810.29 -45.09 h 110 V 875.84 H -258.61 Z" fill="#EEE0CB"/><path id="0" d="M -258.61 30.00 S -139.31 -10.00&#10;            0.00 30.00 119.31 -7.55&#10;            258.61 30.00 377.92 -12.00&#10;            517.23 30.00 539.84 -7.55&#10;            775.84 30.00 895.15 -7.55&#10;            1034.45 30.00 1153.76 -7.55&#10;            1293.07 30.00 1341.68 -7.55&#10;            1551.68 30.00 1670.99 -27.00&#10;            1810.29 30.00 h 110 V 875.84 H -258.61 Z" fill="#e3d8c4"/><path id="1" d="M -258.61 105.09 S -139.31 67.55&#10;            0.00 105.09 85.61 44.09&#10;            258.61 105.09 359.23 67.55&#10;            517.23 105.09 630.84 67.55&#10;            775.84 105.09 895.15 67.55&#10;            1034.45 105.09 1028.07 40.09&#10;            1293.07 105.09 1326.68 33.09&#10;            1551.68 105.09 1556.29 35.09&#10;            1810.29 105.09 h 110 V 875.84 H -258.61 Z" fill="#d8d0bd"/><path id="2" d="M -258.61 180.19 S -139.31 142.64&#10;            0.00 180.19 29.61 142.64&#10;            258.61 180.19 377.92 142.64&#10;            517.23 180.19 531.84 142.64&#10;            775.84 180.19 866.45 142.64&#10;            1034.45 180.19 1151.07 142.64&#10;            1293.07 180.19 1412.37 125.19&#10;            1551.68 180.19 1670.99 129.19&#10;            1810.29 180.19 h 110 V 875.84 H -258.61 Z" fill="#cdc8b6"/><path id="3" d="M -258.61 255.28 S -139.31 217.73&#10;            0.00 255.28 92.61 194.28&#10;            258.61 255.28 377.92 217.73&#10;            517.23 255.28 636.53 217.73&#10;            775.84 255.28 895.15 217.73&#10;            1034.45 255.28 1033.07 217.73&#10;            1293.07 255.28 1412.37 217.73&#10;            1551.68 255.28 1670.99 217.73&#10;            1810.29 255.28 h 110 V 875.84 H -258.61 Z" fill="#c2c0af"/><path id="4" d="M -258.61 330.37 S -186.00 292.83&#10;            0.00 330.37 119.31 292.83&#10;            258.61 330.37 253.23 261.37&#10;            517.23 330.37 636.53 292.83&#10;            775.84 330.37 895.15 259.37&#10;            1034.45 330.37 1153.76 292.83&#10;            1293.07 330.37 1298.68 257.37&#10;            1551.68 330.37 1670.99 292.83&#10;            1810.29 330.37 h 110 V 875.84 H -258.61 Z" fill="#b7b8a8"/><path id="5" d="M -258.61 405.47 S -252.00 367.92&#10;            0.00 405.47 119.31 367.92&#10;            258.61 405.47 347.23 367.92&#10;            517.23 405.47 624.84 367.92&#10;            775.84 405.47 803.45 367.92&#10;            1034.45 405.47 1031.07 367.92&#10;            1293.07 405.47 1287.68 356.47&#10;            1551.68 405.47 1670.99 367.92&#10;            1810.29 405.47 h 110 V 875.84 H -258.61 Z" fill="#acb0a1"/><path id="6" d="M -258.61 480.56 S -139.31 443.01&#10;            0.00 480.56 4.61 443.01&#10;            258.61 480.56 330.23 412.56&#10;            517.23 480.56 602.84 441.56&#10;            775.84 480.56 797.45 443.01&#10;            1034.45 480.56 1035.07 443.01&#10;            1293.07 480.56 1325.68 443.01&#10;            1551.68 480.56 1670.99 425.56&#10;            1810.29 480.56 h 110 V 875.84 H -258.61 Z" fill="#a1a89a"/><path id="7" d="M -258.61 555.65 S -139.31 496.65&#10;            0.00 555.65 119.31 507.65&#10;            258.61 555.65 377.92 518.11&#10;            517.23 555.65 636.53 488.65&#10;            775.84 555.65 895.15 500.65&#10;            1034.45 555.65 1142.07 518.11&#10;            1293.07 555.65 1300.68 485.65&#10;            1551.68 555.65 1670.99 518.11&#10;            1810.29 555.65 h 110 V 875.84 H -258.61 Z" fill="#96a093"/><path id="8" d="M -258.61 630.75 S -139.31 572.75&#10;            0.00 630.75 119.31 567.75&#10;            258.61 630.75 377.92 593.20&#10;            517.23 630.75 575.84 557.75&#10;            775.84 630.75 891.45 555.75&#10;            1034.45 630.75 1153.76 593.20&#10;            1293.07 630.75 1412.37 593.20&#10;            1551.68 630.75 1670.99 593.20&#10;            1810.29 630.75 h 110 V 875.84 H -258.61 Z" fill="#8b988c"/></g></svg>