<svg class="border shadow-md" viewBox="0 0 849.2 849.2" style="width: 849.2px; height: 849.2px;" xmlns="http://www.w3.org/2000/svg" preserveAspectRatio="none"><rect class="bg" id="bg" x="0" y="0" width="849.2" height="849.2" fill="#ffffff"/><path d="M 0 -84.92 L 0 -84.92&#10;                L 56.61 -42.46&#10;                L 169.84 -84.92 L 169.84 -84.92&#10;                L 239.84 -42.46&#10;                L 339.68 -84.92 L 339.68 -84.92&#10;                L 396.29 -42.46&#10;                L 509.52 -84.92 L 509.52 -84.92&#10;                L 627.52 -14.92&#10;                L 679.36 -84.92 L 679.36 -84.92&#10;                L 735.97 -36.92&#10;                L 849.2 -84.92 L 849.2 -84.92&#10;                L 905.81 -11.92&#10;                L 1019.0400000000001 -84.92  V 849.20 H 0 V -84.92 Z" fill="#839788"/><path d="M 0 0 L 0 0.00&#10;                L 92.00 84.00&#10;                L 169.84 0.00 L 169.84 0.00&#10;                L 281.84 66.00&#10;                L 339.68 0.00 L 339.68 0.00&#10;                L 409.68 42.46&#10;                L 509.52 0.00 L 509.52 0.00&#10;                L 566.13 42.46&#10;                L 679.36 0.00 L 679.36 0.00&#10;                L 792.36 42.46&#10;                L 849.2 0.00 L 849.2 0.00&#10;                L 905.81 42.46&#10;                L 1019.0400000000001 0.00  V 849.20 H 0 V 0.00 Z" fill="#8c9d8e"/><path d="M 0 84.92 L 0 84.92&#10;                L 56.61 127.38&#10;                L 169.84 84.92 L 169.84 84.92&#10;                L 287.84 129.92&#10;                L 339.68 84.92 L 339.68 84.92&#10;                L 396.29 142.92&#10;                L 509.52 84.92 L 509.52 84.92&#10;                L 609.52 127.38&#10;                L 679.36 84.92 L 679.36 84.92&#10;                L 760.36 148.92&#10;                L 849.2 84.92 L 849.2 84.92&#10;                L 907.20 127.38&#10;                L 1019.0400000000001 84.92  V 849.20 H 0 V 84.92 Z" fill="#95a394"/><path d="M 0 169.84 L 0 169.84&#10;                L 87.00 233.84&#10;                L 169.84 169.84 L 169.84 169.84&#10;                L 259.84 222.84&#10;                L 339.68 169.84 L 339.68 169.84&#10;                L 409.68 212.30&#10;                L 509.52 169.84 L 509.52 169.84&#10;                L 582.52 212.30&#10;                L 679.36 169.84 L 679.36 169.84&#10;                L 794.36 212.30&#10;                L 849.2 169.84 L 849.2 169.84&#10;                L 941.20 235.84&#10;                L 1019.0400000000001 169.84  V 849.20 H 0 V 169.84 Z" fill="#9ea99a"/><path d="M 0 254.76 L 0 254.76&#10;                L 56.61 320.76&#10;                L 169.84 254.76 L 169.84 254.76&#10;                L 226.45 307.76&#10;                L 339.68 254.76 L 339.68 254.76&#10;                L 405.68 302.76&#10;                L 509.52 254.76 L 509.52 254.76&#10;                L 586.52 297.22&#10;                L 679.36 254.76 L 679.36 254.76&#10;                L 735.97 337.76&#10;                L 849.2 254.76 L 849.2 254.76&#10;                L 905.81 297.22&#10;                L 1019.0400000000001 254.76  V 849.20 H 0 V 254.76 Z" fill="#a7afa0"/><path d="M 0 339.68 L 0 339.68&#10;                L 56.61 406.68&#10;                L 169.84 339.68 L 169.84 339.68&#10;                L 256.84 382.14&#10;                L 339.68 339.68 L 339.68 339.68&#10;                L 415.68 382.14&#10;                L 509.52 339.68 L 509.52 339.68&#10;                L 577.52 382.14&#10;                L 679.36 339.68 L 679.36 339.68&#10;                L 746.36 382.14&#10;                L 849.2 339.68 L 849.2 339.68&#10;                L 905.81 417.68&#10;                L 1019.0400000000001 339.68  V 849.20 H 0 V 339.68 Z" fill="#b0b5a6"/><path d="M 0 424.6 L 0 424.60&#10;                L 56.61 467.06&#10;                L 169.84 424.60 L 169.84 424.60&#10;                L 226.45 488.60&#10;                L 339.68 424.60 L 339.68 424.60&#10;                L 450.68 496.60&#10;                L 509.52 424.60 L 509.52 424.60&#10;                L 596.52 467.06&#10;                L 679.36 424.60 L 679.36 424.60&#10;                L 735.97 486.60&#10;                L 849.2 424.60 L 849.2 424.60&#10;                L 905.81 508.60&#10;                L 1019.0400000000001 424.60  V 849.20 H 0 V 424.60 Z" fill="#b9bbac"/><path d="M 0 509.52 L 0 509.52&#10;                L 102.00 551.98&#10;                L 169.84 509.52 L 169.84 509.52&#10;                L 228.84 551.98&#10;                L 339.68 509.52 L 339.68 509.52&#10;                L 456.68 567.52&#10;                L 509.52 509.52 L 509.52 509.52&#10;                L 593.52 551.98&#10;                L 679.36 509.52 L 679.36 509.52&#10;                L 735.97 556.52&#10;                L 849.2 509.52 L 849.2 509.52&#10;                L 962.20 561.52&#10;                L 1019.0400000000001 509.52  V 849.20 H 0 V 509.52 Z" fill="#c2c1b2"/><path d="M 0 594.44 L 0 594.44&#10;                L 99.00 636.90&#10;                L 169.84 594.44 L 169.84 594.44&#10;                L 278.84 636.90&#10;                L 339.68 594.44 L 339.68 594.44&#10;                L 439.68 636.90&#10;                L 509.52 594.44 L 509.52 594.44&#10;                L 566.13 661.44&#10;                L 679.36 594.44 L 679.36 594.44&#10;                L 735.97 636.90&#10;                L 849.2 594.44 L 849.2 594.44&#10;                L 905.81 636.90&#10;                L 1019.0400000000001 594.44  V 849.20 H 0 V 594.44 Z" fill="#cbc7b8"/><path d="M 0 679.36 L 0 679.36&#10;                L 56.61 734.36&#10;                L 169.84 679.36 L 169.84 679.36&#10;                L 245.84 721.82&#10;                L 339.68 679.36 L 339.68 679.36&#10;                L 452.68 760.36&#10;                L 509.52 679.36 L 509.52 679.36&#10;                L 636.52 721.82&#10;                L 679.36 679.36 L 679.36 679.36&#10;                L 735.97 721.82&#10;                L 849.2 679.36 L 849.2 679.36&#10;                L 908.20 721.82&#10;                L 1019.0400000000001 679.36  V 849.20 H 0 V 679.36 Z" fill="#d4cdbe"/><path d="M 0 764.28 L 0 764.28&#10;                L 56.61 816.28&#10;                L 169.84 764.28 L 169.84 764.28&#10;                L 226.45 830.28&#10;                L 339.68 764.28 L 339.68 764.28&#10;                L 396.29 806.74&#10;                L 509.52 764.28 L 509.52 764.28&#10;                L 566.13 806.74&#10;                L 679.36 764.28 L 679.36 764.28&#10;                L 750.36 806.74&#10;                L 849.2 764.28 L 849.2 764.28&#10;                L 973.20 834.28&#10;                L 1019.0400000000001 764.28  V 849.20 H 0 V 764.28 Z" fill="#ddd3c4"/></svg>