<svg class="border shadow-md" viewBox="0 0 849.2 849.2" style="width: 849.2px; height: 849.2px;" xmlns="http://www.w3.org/2000/svg" preserveAspectRatio="none"><rect class="bg" id="bg" x="0" y="0" width="849.2" height="849.2" fill="#ffffff"/><path d="M 0 -84.92 L 0 -84.92&#10;                L 103.00 -25.92&#10;                L 169.84 -84.92 L 169.84 -84.92&#10;                L 226.45 -16.92&#10;                L 339.68 -84.92 L 339.68 -84.92&#10;                L 396.29 -26.92&#10;                L 509.52 -84.92 L 509.52 -84.92&#10;                L 566.13 -42.46&#10;                L 679.36 -84.92 L 679.36 -84.92&#10;                L 735.97 -42.46&#10;                L 849.2 -84.92 L 849.2 -84.92&#10;                L 915.20 -42.46&#10;                L 1019.0400000000001 -84.92  V 849.20 H 0 V -84.92 Z" fill="#00464F"/><path d="M 0 0 L 0 0.00&#10;                L 82.00 76.00&#10;                L 169.84 0.00 L 169.84 0.00&#10;                L 257.84 42.46&#10;                L 339.68 0.00 L 339.68 0.00&#10;                L 413.68 78.00&#10;                L 509.52 0.00 L 509.52 0.00&#10;                L 581.52 42.46&#10;                L 679.36 0.00 L 679.36 0.00&#10;                L 735.97 67.00&#10;                L 849.2 0.00 L 849.2 0.00&#10;                L 926.20 42.46&#10;                L 1019.0400000000001 0.00  V 849.20 H 0 V 0.00 Z" fill="#0d5153"/><path d="M 0 84.92 L 0 84.92&#10;                L 56.61 141.92&#10;                L 169.84 84.92 L 169.84 84.92&#10;                L 259.84 134.92&#10;                L 339.68 84.92 L 339.68 84.92&#10;                L 396.29 151.92&#10;                L 509.52 84.92 L 509.52 84.92&#10;                L 579.52 127.38&#10;                L 679.36 84.92 L 679.36 84.92&#10;                L 786.36 165.92&#10;                L 849.2 84.92 L 849.2 84.92&#10;                L 905.81 127.38&#10;                L 1019.0400000000001 84.92  V 849.20 H 0 V 84.92 Z" fill="#1a5c57"/><path d="M 0 169.84 L 0 169.84&#10;                L 98.00 249.84&#10;                L 169.84 169.84 L 169.84 169.84&#10;                L 226.45 222.84&#10;                L 339.68 169.84 L 339.68 169.84&#10;                L 438.68 212.30&#10;                L 509.52 169.84 L 509.52 169.84&#10;                L 624.52 212.30&#10;                L 679.36 169.84 L 679.36 169.84&#10;                L 735.97 212.30&#10;                L 849.2 169.84 L 849.2 169.84&#10;                L 912.20 252.84&#10;                L 1019.0400000000001 169.84  V 849.20 H 0 V 169.84 Z" fill="#27675b"/><path d="M 0 254.76 L 0 254.76&#10;                L 56.61 297.22&#10;                L 169.84 254.76 L 169.84 254.76&#10;                L 232.84 297.22&#10;                L 339.68 254.76 L 339.68 254.76&#10;                L 448.68 316.76&#10;                L 509.52 254.76 L 509.52 254.76&#10;                L 618.52 337.76&#10;                L 679.36 254.76 L 679.36 254.76&#10;                L 735.97 297.22&#10;                L 849.2 254.76 L 849.2 254.76&#10;                L 905.81 297.22&#10;                L 1019.0400000000001 254.76  V 849.20 H 0 V 254.76 Z" fill="#34725f"/><path d="M 0 339.68 L 0 339.68&#10;                L 56.61 382.14&#10;                L 169.84 339.68 L 169.84 339.68&#10;                L 226.45 382.14&#10;                L 339.68 339.68 L 339.68 339.68&#10;                L 449.68 382.14&#10;                L 509.52 339.68 L 509.52 339.68&#10;                L 628.52 402.68&#10;                L 679.36 339.68 L 679.36 339.68&#10;                L 735.97 389.68&#10;                L 849.2 339.68 L 849.2 339.68&#10;                L 905.81 422.68&#10;                L 1019.0400000000001 339.68  V 849.20 H 0 V 339.68 Z" fill="#417d63"/><path d="M 0 424.6 L 0 424.60&#10;                L 104.00 497.60&#10;                L 169.84 424.60 L 169.84 424.60&#10;                L 286.84 468.60&#10;                L 339.68 424.60 L 339.68 424.60&#10;                L 396.29 467.06&#10;                L 509.52 424.60 L 509.52 424.60&#10;                L 576.52 467.06&#10;                L 679.36 424.60 L 679.36 424.60&#10;                L 735.97 467.06&#10;                L 849.2 424.60 L 849.2 424.60&#10;                L 905.81 486.60&#10;                L 1019.0400000000001 424.60  V 849.20 H 0 V 424.60 Z" fill="#4e8867"/><path d="M 0 509.52 L 0 509.52&#10;                L 119.00 562.52&#10;                L 169.84 509.52 L 169.84 509.52&#10;                L 226.45 551.98&#10;                L 339.68 509.52 L 339.68 509.52&#10;                L 396.29 551.98&#10;                L 509.52 509.52 L 509.52 509.52&#10;                L 631.52 551.98&#10;                L 679.36 509.52 L 679.36 509.52&#10;                L 735.97 551.98&#10;                L 849.2 509.52 L 849.2 509.52&#10;                L 905.81 551.98&#10;                L 1019.0400000000001 509.52  V 849.20 H 0 V 509.52 Z" fill="#5b936b"/><path d="M 0 594.44 L 0 594.44&#10;                L 56.61 636.90&#10;                L 169.84 594.44 L 169.84 594.44&#10;                L 252.84 644.44&#10;                L 339.68 594.44 L 339.68 594.44&#10;                L 396.29 636.90&#10;                L 509.52 594.44 L 509.52 594.44&#10;                L 566.13 657.44&#10;                L 679.36 594.44 L 679.36 594.44&#10;                L 735.97 636.90&#10;                L 849.2 594.44 L 849.2 594.44&#10;                L 934.20 636.90&#10;                L 1019.0400000000001 594.44  V 849.20 H 0 V 594.44 Z" fill="#689e6f"/><path d="M 0 679.36 L 0 679.36&#10;                L 88.00 738.36&#10;                L 169.84 679.36 L 169.84 679.36&#10;                L 226.45 728.36&#10;                L 339.68 679.36 L 339.68 679.36&#10;                L 399.68 755.36&#10;                L 509.52 679.36 L 509.52 679.36&#10;                L 618.52 728.36&#10;                L 679.36 679.36 L 679.36 679.36&#10;                L 735.97 721.82&#10;                L 849.2 679.36 L 849.2 679.36&#10;                L 905.81 723.36&#10;                L 1019.0400000000001 679.36  V 849.20 H 0 V 679.36 Z" fill="#75a973"/><path d="M 0 764.28 L 0 764.28&#10;                L 87.00 806.74&#10;                L 169.84 764.28 L 169.84 764.28&#10;                L 241.84 839.28&#10;                L 339.68 764.28 L 339.68 764.28&#10;                L 396.29 816.28&#10;                L 509.52 764.28 L 509.52 764.28&#10;                L 604.52 806.74&#10;                L 679.36 764.28 L 679.36 764.28&#10;                L 799.36 814.28&#10;                L 849.2 764.28 L 849.2 764.28&#10;                L 905.81 806.74&#10;                L 1019.0400000000001 764.28  V 849.20 H 0 V 764.28 Z" fill="#82b477"/></svg>