<svg class="border shadow-md" viewBox="0 0 1351.68 675.84" style="width: 1351.68px; height: 675.84px;" xmlns="http://www.w3.org/2000/svg" preserveAspectRatio="none"><rect class="bg" id="bg" x="0" y="0" width="1351.68" height="675.84" fill="#ffffff"/><g transform="rotate(0 675.84 337.92)"><path d="M -517.23 -82.64 S -279.00 -169.64&#10;            0.00 -82.64 136.23 -188.64&#10;            517.23 -82.64 559.45 -138.96&#10;            1034.45 -82.64 1239.68 -147.64&#10;            1551.68 -82.64 1800.29 -146.64&#10;            2068.91 -82.64 h 110 V 875.84 H -517.23 Z" fill="#839788" id="-1"/><path d="M -517.23 30.00 S -384.00 -49.00&#10;            0.00 30.00 248.61 -26.32&#10;            517.23 30.00 765.84 -26.32&#10;            1034.45 30.00 1283.07 -26.32&#10;            1551.68 30.00 1800.29 -41.00&#10;            2068.91 30.00 h 110 V 875.84 H -517.23 Z" fill="#90a090" id="0"/><path d="M -517.23 142.64 S -432.00 86.32&#10;            0.00 142.64 248.61 86.32&#10;            517.23 142.64 682.45 47.64&#10;            1034.45 142.64 1247.68 56.64&#10;            1551.68 142.64 1630.91 86.32&#10;            2068.91 142.64 h 110 V 875.84 H -517.23 Z" fill="#9da998" id="1"/><path d="M -517.23 255.28 S -339.00 179.28&#10;            0.00 255.28 248.61 159.28&#10;            517.23 255.28 593.45 144.28&#10;            1034.45 255.28 1136.68 164.28&#10;            1551.68 255.28 1632.91 198.96&#10;            2068.91 255.28 h 110 V 875.84 H -517.23 Z" fill="#aab2a0" id="2"/><path d="M -517.23 367.92 S -268.61 277.92&#10;            0.00 367.92 126.23 311.60&#10;            517.23 367.92 697.45 311.60&#10;            1034.45 367.92 1283.07 271.92&#10;            1551.68 367.92 1775.91 311.60&#10;            2068.91 367.92 h 110 V 875.84 H -517.23 Z" fill="#b7bba8" id="3"/><path d="M -517.23 480.56 S -268.61 424.24&#10;            0.00 480.56 184.23 424.24&#10;            517.23 480.56 598.45 423.56&#10;            1034.45 480.56 1283.07 389.56&#10;            1551.68 480.56 1683.91 382.56&#10;            2068.91 480.56 h 110 V 875.84 H -517.23 Z" fill="#c4c4b0" id="4"/><path d="M -517.23 593.20 S -268.61 536.88&#10;            0.00 593.20 61.23 527.20&#10;            517.23 593.20 765.84 536.88&#10;            1034.45 593.20 1106.68 536.88&#10;            1551.68 593.20 1800.29 520.20&#10;            2068.91 593.20 h 110 V 875.84 H -517.23 Z" fill="#d1cdb8" id="5"/></g></svg>